<svg width="45" height="42" viewBox="0 0 45 42" fill="none" xmlns="http://www.w3.org/2000/svg">
<path d="M2.24997 42H42.7494C43.1453 42.0001 43.5342 41.8919 43.8768 41.6863C44.2195 41.4807 44.5038 41.185 44.701 40.829C44.8982 40.473 45.0013 40.0693 45 39.6587C44.9986 39.2482 44.8929 38.8453 44.6933 38.4907L28.9436 10.4907C28.1358 9.05567 25.8634 9.06033 25.0534 10.4907L17.6982 23.5667L15.4033 19.7587C15.2012 19.4243 14.9205 19.1487 14.5876 18.9577C14.2546 18.7667 13.8803 18.6665 13.4998 18.6667H13.4976C13.1163 18.6671 12.7415 18.7679 12.4081 18.9597C12.0748 19.1516 11.7939 19.4281 11.5918 19.7633L0.342 38.43C0.129136 38.7832 0.0113173 39.1891 0.000775359 39.6054C-0.00976653 40.0218 0.0873532 40.4335 0.282051 40.7978C0.476749 41.1621 0.761928 41.4657 1.10798 41.6771C1.45403 41.8885 1.84834 42 2.24997 42ZM26.9996 16.2983L38.8322 37.3333H25.9984L20.405 28.0303L26.9996 16.2983ZM13.5021 25.3983L20.6929 37.3333H6.31116L13.5021 25.3983ZM8.99987 14C12.7213 14 15.7498 10.8593 15.7498 7C15.7498 3.14067 12.7213 0 8.99987 0C5.27843 0 2.24997 3.14067 2.24997 7C2.24997 10.8593 5.27843 14 8.99987 14ZM8.99987 4.66667C9.5966 4.66667 10.1689 4.9125 10.5908 5.35008C11.0128 5.78767 11.2498 6.38116 11.2498 7C11.2498 7.61884 11.0128 8.21233 10.5908 8.64991C10.1689 9.0875 9.5966 9.33333 8.99987 9.33333C8.40314 9.33333 7.83086 9.0875 7.40891 8.64991C6.98696 8.21233 6.74991 7.61884 6.74991 7C6.74991 6.38116 6.98696 5.78767 7.40891 5.35008C7.83086 4.9125 8.40314 4.66667 8.99987 4.66667Z" fill="white"/>
</svg>
