<svg width="52" height="63" viewBox="0 0 52 63" fill="none" xmlns="http://www.w3.org/2000/svg">
<path d="M50.5 19.75C47.7778 8.27779 37.6667 0.305573 26 0.305573C12 0.305573 0.722229 11.5834 0.722229 25.5833C0.722229 38.8056 11.0278 49.6945 24.0556 50.6667V60.3889C24.0556 61.5556 24.8333 62.3333 26 62.3333C27.1667 62.3333 27.9445 61.5556 27.9445 60.3889V39.7778V32.5833L37.0833 23.4445C37.8611 22.6667 37.8611 21.5 37.0833 20.7222C36.3056 19.9445 35.1389 19.9445 34.3611 20.7222L27.9445 27.3333V21.5L21.5278 15.0834C20.75 14.3056 19.5833 14.3056 18.8056 15.0834C18.0278 15.8611 18.0278 17.0278 18.8056 17.8056L24.0556 23.0556V35.1111L16.6667 27.7222C15.8889 26.9445 14.7222 26.9445 13.9445 27.7222C13.1667 28.5 13.1667 29.6667 13.9445 30.4445L24.0556 40.5556V46.7778C13.1667 45.8056 4.61112 36.6667 4.61112 25.5833C4.61112 13.7222 14.1389 4.19446 26 4.19446C37.8611 4.19446 47.3889 13.7222 47.3889 25.5833C47.3889 35.1111 40.9722 43.4722 31.8333 46.1945V50.2778C45.4445 46.9722 53.8056 33.3611 50.5 19.75Z" fill="white"/>
</svg>
