<svg width="41" height="47" viewBox="0 0 41 47" fill="none" xmlns="http://www.w3.org/2000/svg">
<path d="M13.1242 26.8629C9.28167 26.8629 6.14583 23.7492 6.14583 19.9288C6.14583 18.3609 6.72 16.8592 7.66958 15.6667C6.74208 14.4742 6.14583 12.9725 6.14583 11.4046C6.14583 7.58418 9.30375 4.47043 13.1242 4.47043L14.0737 4.53668C14.5949 3.25928 15.4842 2.16571 16.6285 1.395C17.7728 0.624278 19.1204 0.211224 20.5 0.208344C23.3929 0.208344 25.8883 1.99709 26.9262 4.53668L27.8758 4.47043C31.6962 4.47043 34.8542 7.58418 34.8542 11.4046C34.8542 12.9725 34.28 14.4742 33.3304 15.6667C34.2579 16.8592 34.8542 18.3609 34.8542 19.9288C34.8542 23.7492 31.6962 26.8629 27.8758 26.8629L26.9262 26.7967C26.4051 28.0741 25.5158 29.1677 24.3715 29.9384C23.2272 30.7091 21.8796 31.1221 20.5 31.125C19.1204 31.1221 17.7728 30.7091 16.6285 29.9384C15.4842 29.1677 14.5949 28.0741 14.0737 26.7967L13.1242 26.8629ZM20.5 26.7084C21.8692 26.7084 22.9733 25.6042 23.0175 24.2792L22.7746 21.8721C22.0679 22.1371 21.295 22.2917 20.5 22.2917C19.705 22.2917 18.9542 22.1371 18.2917 21.8721L17.9825 24.2792C18.0267 25.6042 19.1308 26.7084 20.5 26.7084ZM27.8758 22.4463C29.2671 22.4463 30.4375 21.32 30.4375 19.9067C30.4375 18.9792 29.8412 18.0517 28.9579 17.6321L27.0146 16.7046C26.7496 18.3388 25.8883 19.7521 24.6737 20.7459L26.4625 22.0046C26.86 22.2917 27.3458 22.4463 27.8758 22.4463ZM26.4404 9.32876L24.6296 10.5654C25.8662 11.5592 26.7275 12.9725 26.9925 14.5625L28.9358 13.6792C29.8412 13.2375 30.4375 12.3542 30.4375 11.4046C30.4375 10.0133 29.2671 8.8871 27.8758 8.8871C27.3679 8.8871 26.8821 9.04168 26.4404 9.32876ZM20.5 4.62501C19.1308 4.62501 18.0267 5.72918 17.9825 7.05418L18.2917 9.46126C18.9542 9.19627 19.705 9.04168 20.5 9.04168C21.295 9.04168 22.0679 9.19627 22.7746 9.46126L23.0175 7.05418C22.9733 5.72918 21.8692 4.62501 20.5 4.62501ZM13.1242 8.8871C11.7329 8.8871 10.5625 10.0133 10.5625 11.4046C10.5625 12.3542 11.1587 13.2375 12.0421 13.6792L13.9854 14.5625C14.2504 12.9725 15.1117 11.5592 16.3262 10.5654L14.5375 9.32876C14.14 9.04168 13.6542 8.8871 13.1242 8.8871ZM12.0421 17.6542C11.1587 18.0959 10.5625 18.9792 10.5625 19.9067C10.5625 21.2979 11.7329 22.4242 13.1242 22.4242C13.6321 22.4242 14.1179 22.2917 14.5596 21.9825L16.3483 20.7679C15.1117 19.7742 14.2504 18.3609 13.9854 16.7709L12.0421 17.6542ZM20.5 46.5834C15.2288 46.5834 10.1735 44.4894 6.44625 40.7621C2.71897 37.0348 0.625 31.9795 0.625 26.7084C5.89618 26.7084 10.9515 28.8023 14.6787 32.5296C18.406 36.2569 20.5 41.3122 20.5 46.5834C20.5 41.3122 22.594 36.2569 26.3213 32.5296C30.0485 28.8023 35.1038 26.7084 40.375 26.7084C40.375 31.9795 38.281 37.0348 34.5537 40.7621C30.8265 44.4894 25.7712 46.5834 20.5 46.5834ZM25.8883 41.195C27.9664 40.4158 29.8536 39.2006 31.4229 37.6313C32.9923 36.062 34.2074 34.1748 34.9867 32.0967C30.7908 33.6425 27.4562 36.9992 25.8883 41.195ZM6.01333 32.0967C6.79258 34.1748 8.00772 36.062 9.57707 37.6313C11.1464 39.2006 13.0336 40.4158 15.1117 41.195C13.5658 36.9992 10.2092 33.6646 6.01333 32.0967Z" fill="white"/>
</svg>
