<svg width="48" height="47" viewBox="0 0 48 47" fill="none" xmlns="http://www.w3.org/2000/svg">
<path fill-rule="evenodd" clip-rule="evenodd" d="M24 46.4624C4.236 46.4624 0 42.3621 0 23.2312C0 4.10031 4.236 0 24 0C43.764 0 48 4.10031 48 23.2312C48 42.3621 43.764 46.4624 24 46.4624ZM21.4142 32.3438L29.4142 24.6001C30.1953 23.8441 30.1953 22.6183 29.4142 21.8623L21.4142 14.1186C20.6332 13.3625 19.3668 13.3625 18.5858 14.1186C17.8047 14.8746 17.8047 16.1004 18.5858 16.8564L25.1716 23.2312L18.5858 29.606C17.8047 30.3621 17.8047 31.5878 18.5858 32.3438C19.3668 33.0999 20.6332 33.0999 21.4142 32.3438Z" fill="#1B1B19"/>
</svg>
