<svg width="48" height="47" viewBox="0 0 48 47" fill="none" xmlns="http://www.w3.org/2000/svg">
<path fill-rule="evenodd" clip-rule="evenodd" d="M24 46.4624C43.764 46.4624 48 42.3621 48 23.2312C48 4.10031 43.764 0 24 0C4.236 0 0 4.10031 0 23.2312C0 42.3621 4.236 46.4624 24 46.4624ZM26.5858 32.3438L18.5858 24.6001C17.8047 23.8441 17.8047 22.6183 18.5858 21.8623L26.5858 14.1186C27.3668 13.3625 28.6332 13.3625 29.4142 14.1186C30.1953 14.8746 30.1953 16.1004 29.4142 16.8564L22.8284 23.2312L29.4142 29.606C30.1953 30.3621 30.1953 31.5878 29.4142 32.3438C28.6332 33.0999 27.3668 33.0999 26.5858 32.3438Z" fill="#1B1B19"/>
</svg>
