<svg width="51" height="63" viewBox="0 0 51 63" fill="none" xmlns="http://www.w3.org/2000/svg">
<path d="M49.7778 19.4444C47.0556 7.97222 36.9444 0 25.2778 0C11.2778 0 0 11.2778 0 25.2778C0 38.5 10.3056 49.3889 23.3333 50.3611V60.0833C23.3333 61.25 24.1111 62.0278 25.2778 62.0278C26.4444 62.0278 27.2222 61.25 27.2222 60.0833V39.4722V32.2778L36.3611 23.1389C37.1389 22.3611 37.1389 21.1944 36.3611 20.4167C35.5833 19.6389 34.4167 19.6389 33.6389 20.4167L27.2222 27.0278V21.1944L20.8056 14.7778C20.0278 14 18.8611 14 18.0833 14.7778C17.3056 15.5556 17.3056 16.7222 18.0833 17.5L23.3333 22.75V34.8056L15.9444 27.4167C15.1667 26.6389 14 26.6389 13.2222 27.4167C12.4444 28.1944 12.4444 29.3611 13.2222 30.1389L23.3333 40.25V46.4722C12.4444 45.5 3.88889 36.3611 3.88889 25.2778C3.88889 13.4167 13.4167 3.88889 25.2778 3.88889C37.1389 3.88889 46.6667 13.4167 46.6667 25.2778C46.6667 34.8056 40.25 43.1667 31.1111 45.8889V49.9722C44.7222 46.6667 53.0833 33.0556 49.7778 19.4444Z" fill="#38C64F"/>
</svg>
