<svg width="54" height="48" viewBox="0 0 54 48" fill="none" xmlns="http://www.w3.org/2000/svg">
<path d="M54 28.7461C54 24.7513 51.0554 21.1418 47.0452 20.0852C46.2217 17.1224 43.7369 14.7059 40.6414 13.8178C40.6868 13.5243 40.7109 13.2267 40.7109 12.9258C40.7109 9.72723 38.1087 7.125 34.9102 7.125C34.4943 7.125 34.0854 7.16814 33.6863 7.25399C32.4012 3.6382 29.3001 0.796875 25.418 0.796875C20.6056 0.796875 16.5077 5.21559 16.1606 10.6033C15.4723 10.396 14.7533 10.2891 14.0273 10.2891C9.95646 10.2891 6.64453 13.601 6.64453 17.6719C6.64453 18.6249 6.8271 19.5588 7.17746 20.4289C2.94975 21.9498 0 25.9252 0 30.3281C0 33.4019 1.60028 36.4641 4.23647 38.5414C3.74498 39.408 3.48047 40.3926 3.48047 41.4023C3.48047 42.8035 3.97986 44.0901 4.8099 45.0938H1.05469C0.472184 45.0938 0 45.566 0 46.1484C0 46.7308 0.472184 47.2031 1.05469 47.2031H52.9453C53.5277 47.2031 54 46.7308 54 46.1484C54 45.566 53.5277 45.0938 52.9453 45.0938H49.1901C50.0201 44.0901 50.5195 42.8035 50.5195 41.4023C50.5195 39.6091 49.7013 38.0035 48.4189 36.9386C51.6702 35.5275 54 32.3437 54 28.7461ZM44.7188 35.6016C44.1364 35.6016 43.6641 36.0739 43.6641 36.6562C43.6641 37.2386 44.1364 37.7109 44.7188 37.7109C46.7542 37.7109 48.4102 39.3669 48.4102 41.4023C48.4102 43.4378 46.7542 45.0938 44.7188 45.0938H34.886L40.4867 31.0921L46.456 28.1075C46.977 27.847 47.1882 27.2134 46.9278 26.6925C46.6672 26.1715 46.0334 25.9602 45.5128 26.2208L40.7109 28.6216V24C40.7109 23.4176 40.2386 22.9453 39.6562 22.9453C39.0739 22.9453 38.6016 23.4176 38.6016 24V30.125L37.4398 33.0292L34.2714 26.6924C34.0109 26.1714 33.3771 25.9601 32.8565 26.2206C32.3355 26.4812 32.1243 27.1147 32.3847 27.6356L36.3917 35.6495L32.614 45.0938H28.0547V41.4023C28.0547 40.8199 27.5824 40.3477 27 40.3477C26.4176 40.3477 25.9453 40.8199 25.9453 41.4023V45.0938H21.4954L18.5625 33.3624V27.1641C18.5625 26.5817 18.0903 26.1094 17.5078 26.1094C16.9253 26.1094 16.4531 26.5817 16.4531 27.1641V31.7857L11.6513 29.3848C11.1304 29.1242 10.4968 29.3353 10.2363 29.8566C9.97576 30.3775 10.1869 31.011 10.7079 31.2715L16.6022 34.2187L19.321 45.0938H9.28125C7.24581 45.0938 5.58984 43.4378 5.58984 41.4023C5.58984 39.3549 7.25266 37.7109 9.28125 37.7109C9.86375 37.7109 10.3359 37.2386 10.3359 36.6562C10.3359 36.0739 9.86375 35.6016 9.28125 35.6016C7.92555 35.6016 6.62502 36.076 5.59364 36.9256C3.42657 35.244 2.10938 32.7801 2.10938 30.3281C2.10938 25.7204 6.14429 21.8906 10.8633 21.8906C11.8303 21.8906 12.7765 22.052 13.6754 22.3702C14.2247 22.5648 14.8272 22.277 15.0216 21.7279C15.216 21.1788 14.9285 20.5761 14.3793 20.3817C13.2537 19.9832 12.0708 19.7812 10.8633 19.7812C10.3236 19.7812 9.78328 19.823 9.24856 19.904C8.92392 19.2101 8.75391 18.4502 8.75391 17.6719C8.75391 14.7641 11.1196 12.3984 14.0273 12.3984C14.9654 12.3984 15.8863 12.6478 16.6905 13.1194C17.4221 13.5487 18.3415 12.9788 18.2756 12.1282C18.256 11.8752 18.2461 11.6112 18.2461 11.3438C18.2461 6.7702 21.5304 2.90625 25.418 2.90625C28.3899 2.90625 31.0825 5.34754 31.966 8.84309C32.1263 9.47727 32.8188 9.81298 33.4161 9.54878C33.8866 9.34016 34.3894 9.23438 34.9102 9.23438C36.9456 9.23438 38.6016 10.8903 38.6016 12.9258C38.6016 13.1087 38.5876 13.2895 38.5615 13.4679C38.3984 13.4591 38.2357 13.4531 38.0742 13.4531C33.131 13.4531 29.1094 17.4748 29.1094 22.418C29.1094 23.0004 29.5817 23.4727 30.1641 23.4727C30.7465 23.4727 31.2188 23.0004 31.2188 22.418C31.2188 18.6379 34.2941 15.5625 38.0742 15.5625C41.4465 15.5625 44.5421 17.9772 45.1308 21.1606C45.2102 21.5901 45.5464 21.9264 45.976 22.0059C49.348 22.6299 51.8906 25.5274 51.8906 28.7461C51.8906 32.4621 48.6062 35.6016 44.7188 35.6016Z" fill="#38C74F"/>
<path d="M27 37.7109C27.5825 37.7109 28.0547 37.2387 28.0547 36.6562C28.0547 36.0738 27.5825 35.6016 27 35.6016C26.4175 35.6016 25.9453 36.0738 25.9453 36.6562C25.9453 37.2387 26.4175 37.7109 27 37.7109Z" fill="#38C74F"/>
<path d="M27 32.9648C27.5824 32.9648 28.0547 32.4926 28.0547 31.9102V27.1641C28.0547 26.8844 27.9435 26.6161 27.7458 26.4183L24.6665 23.339L27.8916 18.2353C27.9981 18.0666 28.0547 17.8713 28.0547 17.6719V11.3438C28.0547 10.7614 27.5824 10.2891 27 10.2891C26.4176 10.2891 25.9453 10.7614 25.9453 11.3438V17.3665L23.1375 21.8099L18.2537 16.9261C17.8418 16.5145 17.174 16.5144 16.7621 16.9261C16.3503 17.338 16.3502 18.0058 16.7621 18.4178L25.9453 27.601V31.9102C25.9453 32.4926 26.4176 32.9648 27 32.9648Z" fill="#38C74F"/>
</svg>
