<svg width="61" height="59" viewBox="0 0 61 59" fill="none" xmlns="http://www.w3.org/2000/svg">
<path d="M60.3275 39.4828L47.1405 32.0058V28.9381H49.3037C51.8711 28.9381 53.9598 26.8493 53.9598 24.2819V23.2497C53.9598 22.3153 53.1996 21.5551 52.2652 21.5551H50.0024C48.924 21.5551 47.9307 21.9247 47.1405 22.5425C47.1405 22.5425 47.12 16.4501 47.0841 16.1654H50.5147C51.8633 16.1654 53.1674 15.8801 54.3904 15.3176C54.8406 15.1107 55.0376 14.5778 54.8305 14.1278C54.6237 13.6777 54.0911 13.4807 53.6407 13.6876C52.6545 14.1412 51.6028 14.3712 50.5147 14.3712H47.1405V12.996C47.1405 8.86476 50.5016 5.50366 54.6329 5.50366H58.0072V6.87872C58.0072 8.5692 57.4558 10.1658 56.4125 11.4962C56.1068 11.8862 56.1751 12.45 56.5649 12.7557C56.9548 13.0613 57.5187 12.9932 57.8244 12.6034C59.1178 10.9539 59.8012 8.97432 59.8012 6.87872V5.25259C59.8012 4.40191 59.1091 3.70972 58.2583 3.70972H54.6328C49.7067 3.70972 45.6662 7.56565 45.3661 12.4175C44.1007 11.0118 42.2684 10.1262 40.2326 10.1262H37.3652C36.5838 10.1262 35.948 10.7619 35.948 11.5436V13.6143C35.948 17.4232 39.0468 20.522 42.8557 20.522H45.3461V30.9887L31.3715 23.065V21.1721H32.6506C34.2988 21.1721 35.6397 19.8312 35.6397 18.1829V17.2974C35.6397 16.3583 34.8756 15.5944 33.9367 15.5944H32.5665C32.0737 15.5944 31.6089 15.7149 31.1988 15.927C30.7863 14.7693 29.6798 13.938 28.3823 13.938H27.0121C26.073 13.938 25.3091 14.7021 25.3091 15.6411V16.5266C25.3091 18.1748 26.65 19.5157 28.2982 19.5157H29.5773V20.275V23.1839L13.7146 32.1781V28.9966V27.8881H14.9629C17.0945 27.8881 18.8286 26.154 18.8286 24.0225V22.9729C18.8286 22.0675 18.092 21.331 17.1867 21.331H15.7864C14.2905 21.331 12.9914 22.1855 12.3489 23.4315C11.4275 22.4484 10.1188 21.8323 8.66828 21.8323H7.31021C6.39673 21.8323 5.65358 22.5754 5.65358 23.4889V24.8471C5.65358 27.6297 7.91748 29.8935 10.7 29.8935H11.9205V33.1953L8.42308 35.1783C7.99199 35.4227 7.84081 35.9702 8.08517 36.4013C8.32954 36.8322 8.87712 36.9833 9.30809 36.7392L11.9207 35.2579V41.0793C11.9207 41.5748 12.3222 41.9764 12.8177 41.9764C13.3133 41.9764 13.7148 41.5748 13.7148 41.0793V34.2405L17.0598 32.3439L28.7156 38.9528L13.9254 47.339L2.42417 40.6423L5.67822 38.7973C6.1093 38.553 6.26049 38.0055 6.01612 37.5744C5.77164 37.1433 5.22405 36.9921 4.79321 37.2365L0.831418 39.4828C0.419473 39.7164 0.161709 40.1558 0.159078 40.6294C0.156447 41.103 0.409067 41.5452 0.81838 41.7834L13.473 49.1516C13.4738 49.152 13.4747 49.1525 13.4755 49.153L29.912 58.7232C30.1178 58.843 30.3486 58.9029 30.5794 58.9029C30.8103 58.9029 31.0411 58.843 31.247 58.7232L52.6549 46.2584C53.0831 46.0091 53.2281 45.4598 52.9788 45.0318C52.7294 44.6035 52.1799 44.4583 51.7522 44.7078L47.1892 47.3647L32.3533 38.9526L44.0542 32.3181L45.3464 33.0507V39.8237C45.3464 40.3193 45.7479 40.7208 46.2435 40.7208C46.739 40.7208 47.1405 40.3193 47.1405 39.8237V34.0682L58.7349 40.6422L55.3407 42.6186C54.9125 42.8678 54.7675 43.4171 55.0168 43.8452C55.1835 44.1314 55.484 44.2911 55.7928 44.2911C55.946 44.2911 56.1014 44.2519 56.2434 44.1691L60.3407 41.7834C60.75 41.5452 61.0026 41.103 61 40.6294C60.9972 40.1558 60.7396 39.7164 60.3275 39.4828ZM50.0024 23.3493H52.1656V24.2819C52.1656 25.86 50.8818 27.1439 49.3037 27.1439H47.1405V26.2113C47.1405 24.6332 48.4245 23.3493 50.0024 23.3493ZM42.8559 18.7276C40.0363 18.7276 37.7424 16.4337 37.7424 13.6141V11.9202H40.2327C43.0523 11.9202 45.3464 14.2143 45.3464 17.0339V18.7276H42.8559ZM13.7148 25.1965C13.7148 24.0542 14.6442 23.1249 15.7864 23.1249H17.0347V24.0222C17.0347 25.1645 16.1053 26.0937 14.9631 26.0937H13.7148V25.1965ZM10.7001 28.0991C8.90679 28.0991 7.44788 26.6402 7.44788 24.8468V23.6262H8.6684C10.4617 23.6262 11.9207 25.0851 11.9207 26.8785V28.0991H10.7001ZM32.5669 17.3882H33.8459V18.1827C33.8459 18.8416 33.3099 19.3777 32.651 19.3777H31.3718V18.5831C31.3717 17.9242 31.9079 17.3882 32.5669 17.3882ZM27.1035 16.5263V15.7317H28.3825C29.0414 15.7317 29.5775 16.2678 29.5775 16.9267V17.7212H28.2984C27.6395 17.7213 27.1035 17.1852 27.1035 16.5263ZM45.3946 48.4097L30.5797 57.0358L15.7201 48.3838L30.5346 39.984L45.3946 48.4097ZM30.5344 37.9214L18.8786 31.3125L29.5777 25.2461V31.3125C29.5777 31.808 29.9792 32.2096 30.4748 32.2096C30.9703 32.2096 31.3718 31.808 31.3718 31.3125V25.1272L42.2355 31.287L30.5344 37.9214Z" fill="#38C64F"/>
<path d="M28.2984 50.4626H29.5775V52.5109C29.5775 53.0064 29.9791 53.408 30.4746 53.408C30.9702 53.408 31.3717 53.0064 31.3717 52.5109V50.4626H32.5078C34.061 50.4626 35.3245 49.1992 35.3245 47.6459V46.8536C35.3245 46.0341 34.6578 45.3674 33.8384 45.3674H32.3943C31.7466 45.3674 31.1497 45.5877 30.6734 45.9565C30.1246 45.302 29.3015 44.8848 28.3825 44.8848H27.0123C26.0733 44.8848 25.3093 45.6488 25.3093 46.5879V47.4734C25.3093 49.1217 26.6503 50.4626 28.2984 50.4626ZM32.3943 47.1617H33.5304V47.646C33.5304 48.2099 33.0716 48.6686 32.5078 48.6686H31.3717V48.1843C31.3717 47.6203 31.8304 47.1617 32.3943 47.1617ZM27.1035 46.6789H28.3825C29.0414 46.6789 29.5775 47.2149 29.5775 47.8739V48.6685H28.2984C27.6395 48.6685 27.1035 48.1325 27.1035 47.4735V46.6789Z" fill="#38C64F"/>
<path d="M3.9216 7.94025C5.77523 7.94025 7.3315 6.64701 7.7383 4.91574H12.4461L21.7505 14.2203C21.9257 14.3954 22.1554 14.4829 22.3849 14.4829C22.6145 14.4829 22.8441 14.3954 23.0193 14.2203C23.3697 13.8698 23.3697 13.3019 23.0193 12.9515L13.4522 3.38435C13.2839 3.21617 13.0558 3.12168 12.8177 3.12168H7.73842C7.3315 1.39029 5.77523 0.097168 3.9216 0.097168C1.75925 0.097168 0 1.8563 0 4.01865C0 6.181 1.75925 7.94025 3.9216 7.94025ZM3.9216 1.89135C5.09464 1.89135 6.0489 2.84573 6.0489 4.01865C6.0489 5.19181 5.09452 6.14607 3.9216 6.14607C2.74857 6.14607 1.79418 5.19181 1.79418 4.01865C1.79418 2.84562 2.74857 1.89135 3.9216 1.89135Z" fill="#38C64F"/>
<path d="M12.8177 9.86841H7.9262C7.43065 9.86841 7.02911 10.2699 7.02911 10.7655C7.02911 11.2611 7.43065 11.6626 7.9262 11.6626H12.8179C13.3134 11.6626 13.7149 11.2611 13.7149 10.7655C13.7149 10.2699 13.3133 9.86841 12.8177 9.86841Z" fill="#38C64F"/>
<path d="M12.8178 13.5908H2.60791C2.11235 13.5908 1.71082 13.9924 1.71082 14.4879C1.71082 14.9835 2.11235 15.385 2.60791 15.385H12.8178C13.3133 15.385 13.7148 14.9835 13.7148 14.4879C13.7148 13.9924 13.3133 13.5908 12.8178 13.5908Z" fill="#38C64F"/>
<path d="M12.8178 17.3132H2.60791C2.11235 17.3132 1.71082 17.7148 1.71082 18.2103C1.71082 18.7059 2.11235 19.1074 2.60791 19.1074H12.8178C13.3133 19.1074 13.7148 18.7059 13.7148 18.2103C13.7148 17.7148 13.3133 17.3132 12.8178 17.3132Z" fill="#38C64F"/>
<path d="M2.60791 11.6626H4.69095C5.1865 11.6626 5.58804 11.2611 5.58804 10.7655C5.58804 10.2699 5.1865 9.86841 4.69095 9.86841H2.60791C2.11235 9.86841 1.71082 10.2699 1.71082 10.7655C1.71082 11.2611 2.11235 11.6626 2.60791 11.6626Z" fill="#38C64F"/>
</svg>
