<svg width="50" height="54" viewBox="0 0 50 54" fill="none" xmlns="http://www.w3.org/2000/svg">
<path d="M48.8359 51.8902H46.7266V20.9733H48.8359C49.2849 20.9733 49.6846 20.6892 49.8321 20.2651C49.9795 19.8411 49.8425 19.3702 49.4905 19.0916L46.3047 16.5702V4.6944C46.3047 4.1119 45.8324 3.63971 45.25 3.63971H39.5547C38.9723 3.63971 38.5 4.1119 38.5 4.6944V10.3934L25.6545 0.227166C25.2709 -0.0763731 24.729 -0.0763731 24.3455 0.227166L0.509518 19.0915C0.157463 19.3702 0.0203539 19.841 0.167905 20.265C0.31535 20.6891 0.715077 20.9732 1.16406 20.9732H3.27343V31.6855C3.27343 32.268 3.74572 32.7402 4.32812 32.7402C4.91052 32.7402 5.38281 32.268 5.38281 31.6855V20.9733H44.6172V51.8902H42.6628C39.8461 51.7825 37.2134 50.6353 35.2091 48.6309L31.4607 44.8826C29.9862 43.4081 28.0959 42.502 26.0547 42.2687V38.3137C26.5045 38.3797 26.9561 38.4135 27.4062 38.4135C29.8518 38.4135 32.2465 37.4525 34.0138 35.6851C36.3597 33.3392 37.2848 29.8886 36.428 26.6798C36.3306 26.3151 36.0457 26.0302 35.6811 25.9329C32.4725 25.0761 29.0216 26.001 26.6757 28.347C25.9937 29.0289 25.4328 29.8046 24.9999 30.6401C24.5669 29.8046 24.0061 29.029 23.3241 28.3471C20.9782 26.0012 17.5272 25.0762 14.3186 25.933C13.954 26.0303 13.6692 26.3152 13.5718 26.6799C12.715 29.8887 13.64 33.3394 15.986 35.6852C17.7534 37.4527 20.1479 38.4136 22.5936 38.4136C23.0437 38.4136 23.4953 38.3799 23.9451 38.3138V42.2688C21.9039 42.5021 20.0136 43.4082 18.5391 44.8826L14.7907 48.631C12.7866 50.6352 10.1539 51.7824 7.33714 51.8902H5.38281V41.1778C5.38281 40.5953 4.91052 40.1231 4.32812 40.1231C3.74572 40.1231 3.27343 40.5953 3.27343 41.1778V51.8902H1.16406C0.581659 51.8902 0.109369 52.3624 0.109369 52.9449C0.109369 53.5274 0.581659 53.9996 1.16406 53.9996H48.8359C49.4183 53.9996 49.8906 53.5274 49.8906 52.9449C49.8906 52.3624 49.4183 51.8902 48.8359 51.8902ZM28.1673 29.8386C29.8343 28.1716 32.2225 27.4318 34.5251 27.8358C34.929 30.1384 34.1893 32.5267 32.5222 34.1937C30.8553 35.8606 28.4674 36.6004 26.1645 36.1964C25.7605 33.8938 26.5002 31.5056 28.1673 29.8386ZM23.8355 36.1964C21.5328 36.6004 19.1445 35.8605 17.4778 34.1936C15.8106 32.5265 15.071 30.1383 15.4749 27.8358C17.7775 27.432 20.1659 28.1717 21.8327 29.8387C23.4997 31.5056 24.2395 33.8938 23.8355 36.1964ZM14.0993 51.8902C14.8784 51.3849 15.6104 50.7947 16.2826 50.1225L20.0309 46.3742C21.3583 45.047 23.1229 44.3158 25 44.3158C26.8771 44.3158 28.6417 45.0468 29.9691 46.3742L33.7174 50.1225C34.3896 50.7947 35.1216 51.385 35.9007 51.8902H14.0993ZM40.6094 5.74909H44.1953V14.9008L40.6094 12.0628V5.74909ZM4.19618 18.8639L25 2.39929L45.8038 18.8639H4.19618Z" fill="#38C64F"/>
<path d="M4.32812 37.4871C4.60551 37.4871 4.87762 37.3742 5.07368 37.178C5.26986 36.9819 5.38281 36.7098 5.38281 36.4324C5.38281 36.155 5.26996 35.8829 5.07368 35.6867C4.87762 35.4895 4.60551 35.3777 4.32812 35.3777C4.05074 35.3777 3.77863 35.4895 3.58246 35.6867C3.38629 35.8829 3.27344 36.1539 3.27344 36.4324C3.27344 36.7098 3.38618 36.9819 3.58246 37.178C3.77863 37.3742 4.05074 37.4871 4.32812 37.4871Z" fill="#EDCE9A"/>
</svg>
