<svg width="54" height="54" viewBox="0 0 54 54" fill="none" xmlns="http://www.w3.org/2000/svg">
<path d="M15.9165 7.79537C15.8134 4.07997 18.8436 0.672125 22.4937 0.72741C23.7352 0.748406 25.0487 1.14564 26.2922 1.87627C26.7907 2.16904 27.4098 2.16894 27.908 1.87627C29.1516 1.14574 30.4652 0.748511 31.7068 0.72741C33.3418 0.699134 34.9848 1.37965 36.2188 2.59276C40.7455 6.90036 36.7591 14.8392 34.0594 19.7018C33.66 20.4494 33.2828 21.1556 32.9374 21.8346C32.5651 22.567 31.8237 22.9887 31.0549 22.9888C30.733 22.9888 30.4064 22.9149 30.1 22.7591C29.0612 22.2309 28.6473 20.9605 29.1756 19.9217C29.5401 19.2047 29.9271 18.4803 30.3368 17.7135C32.0239 14.4478 35.687 8.18437 33.2599 5.60211C32.7577 5.10855 32.1488 4.94259 31.7781 4.94702C31.2698 4.95567 30.6546 5.15729 30.0458 5.51496C28.2287 6.58247 25.9712 6.58247 24.1542 5.51496C23.5456 5.1574 22.9304 4.95567 22.4221 4.94712C22.0688 4.94217 21.4786 5.1134 20.9649 5.61825C20.5871 5.98974 20.1366 6.66898 20.1366 7.79547C20.1366 8.96089 19.1919 9.90559 18.0264 9.90559C16.861 9.90559 15.9165 8.96078 15.9165 7.79537ZM23.9792 47.2379C23.031 46.5603 21.713 46.7792 21.0355 47.7274C20.3804 48.6438 19.619 48.9344 19.0955 49.017C18.3844 49.1288 17.802 48.9247 17.5198 48.7156C17.1113 48.413 16.7281 47.8913 16.4408 47.2462C15.5834 45.3211 13.7468 44.0084 11.6478 43.8202C10.9446 43.7571 10.3267 43.5635 9.90839 43.2749C9.6038 43.065 9.20519 42.5737 9.08386 41.8803C8.95483 41.1436 9.16405 40.3861 9.7055 39.6287C11.3729 37.2961 15.0742 35.4875 18.3397 33.8918C19.1996 33.4715 20.0119 33.0746 20.7943 32.6676C21.8281 32.1296 22.2301 30.8555 21.6923 29.8217C21.1543 28.7878 19.8804 28.3859 18.8463 28.9237C14.5299 31.157 9.07352 33.2786 6.27223 37.1745C3.79621 40.7012 4.65978 44.6637 7.51277 46.7493C8.53502 47.4541 9.83464 47.8947 11.2711 48.0235C11.8469 48.075 12.3505 48.4352 12.5857 48.9632C13.1725 50.2806 14.0101 51.3678 15.0079 52.1067C16.2799 53.0594 18.1139 53.4528 19.7525 53.1858C21.6194 52.8915 23.2943 51.8246 24.4688 50.1816C25.1464 49.2335 24.9272 47.9155 23.9792 47.2379ZM45.0726 36.5768C44.1308 37.2631 43.9237 38.5831 44.6101 39.5248C45.2734 40.4351 45.3095 41.2493 45.223 41.7721C45.1053 42.4827 44.728 42.9708 44.4407 43.1727C44.0248 43.4652 43.4088 43.6645 42.7063 43.734C40.6091 43.9413 38.7846 45.2709 37.9448 47.2038C37.6636 47.8513 37.2851 48.3766 36.8794 48.683C36.5842 48.9058 35.9923 49.1296 35.296 49.0262C34.5563 48.9166 33.9032 48.4794 33.3549 47.727C31.6015 45.3209 31.006 41.1384 30.4808 37.4484C30.3644 36.6314 30.2546 35.8598 30.1332 35.1033C29.9482 33.9526 28.865 33.1695 27.715 33.3546C26.5643 33.5395 25.7815 34.6222 25.9663 35.7727C26.7303 40.5738 27.1369 46.3387 29.9443 50.2124C31.4884 52.3313 33.3703 53.007 34.6771 53.2007C35.0049 53.2493 35.3333 53.2733 35.6594 53.2732C37.0357 53.2732 38.3681 52.8469 39.4224 52.0509C40.4135 51.3027 41.2409 50.2081 41.8156 48.8853C42.046 48.3552 42.5464 47.9905 43.1217 47.9336C44.5568 47.7917 45.8523 47.3391 46.8682 46.6249C48.1644 45.7135 49.1059 44.1571 49.3866 42.4614C49.6954 40.597 49.2104 38.6713 48.0209 37.0391C47.3343 36.0974 46.0143 35.8903 45.0726 36.5768ZM53.6862 23.9403C53.2806 22.7676 52.495 21.6435 51.4143 20.6894C50.9822 20.308 50.7905 19.722 50.9136 19.1601C51.2225 17.7523 51.1925 16.3813 50.8268 15.195C50.3607 13.6833 49.1724 12.3091 47.648 11.5189C45.97 10.6489 43.9879 10.5148 42.0675 11.141C40.9595 11.5022 40.3542 12.6932 40.7154 13.8012C41.0768 14.9091 42.2674 15.5148 43.3757 15.1533C44.4483 14.8036 45.2348 15.0213 45.7058 15.2655C46.3441 15.5964 46.6909 16.1042 46.7938 16.4383C46.9431 16.9226 46.9423 17.5681 46.7914 18.2559C46.3404 20.3134 47.0414 22.4581 48.6212 23.8529C49.1498 24.3195 49.5321 24.8404 49.6979 25.3197C49.8182 25.6674 49.8479 26.2961 49.5359 26.9237C49.2036 27.5925 48.5859 28.0781 47.7002 28.3669C44.248 29.4891 38.731 28.1056 34.5997 27.4676C33.448 27.2877 32.3693 28.0761 32.1897 29.2275C32.0102 30.379 32.7982 31.4581 33.9497 31.6374C34.7096 31.7559 35.5082 31.8973 36.3536 32.0469C40.4161 32.7427 44.993 33.6474 49.0083 32.3792C53.0896 31.0118 54.7498 27.3091 53.6862 23.9403ZM5.65228 32.4325C6.54623 32.4325 7.37635 31.8598 7.66227 30.9626C8.01614 29.8522 7.40294 28.6652 6.29259 28.3113C5.22371 27.9707 4.71464 27.3371 4.47588 26.8656C4.15029 26.2228 4.1658 25.6057 4.27785 25.2727C4.43991 24.7912 4.81772 24.2667 5.34188 23.7956C6.90706 22.3886 7.59053 20.2391 7.12525 18.1856C6.96931 17.4973 6.96372 16.8501 7.10942 16.3633C7.21545 16.0091 7.55962 15.4792 8.18073 15.1512C8.83877 14.8038 9.62025 14.7704 10.5031 15.0518C13.2653 15.932 16.1651 18.9282 18.7236 21.5715C19.3571 22.2261 19.9555 22.8442 20.5531 23.4345C22.6226 25.3223 25.4318 22.4771 23.5188 20.432C22.955 19.8751 22.3726 19.2735 21.7561 18.6364C18.8513 15.6352 15.5589 12.2336 11.7846 11.0308C9.29118 10.236 7.37688 10.8032 6.21051 11.4192C4.68088 12.2267 3.53498 13.5878 3.06632 15.1533C2.71066 16.3417 2.69083 17.7126 3.00924 19.1181C3.13691 19.6817 2.94974 20.2715 2.52054 20.6571C-1.79001 24.3389 -0.318838 30.6068 5.01091 32.3325C5.22413 32.4002 5.43989 32.4325 5.65228 32.4325ZM29.7378 27.8415C29.7378 26.3848 28.5569 25.2039 27.1002 25.2039C23.6014 25.3428 23.6023 30.3407 27.1002 30.4792C28.5569 30.4792 29.7378 29.2983 29.7378 27.8415Z" fill="#38C64F"/>
</svg>
