<svg width="27" height="19" viewBox="0 0 27 19" fill="none" xmlns="http://www.w3.org/2000/svg">
<path d="M16.1053 12.0955C16.1053 10.7617 14.9247 9.67651 13.4737 9.67651C12.0226 9.67651 10.8421 10.7617 10.8421 12.0955C10.8421 13.4293 12.0226 14.5144 13.4737 14.5144C14.9247 14.5144 16.1053 13.4293 16.1053 12.0955Z" fill="black"/>
<path d="M0.131842 11.775C-0.0439474 11.958 -0.0439474 12.2326 0.131842 12.4156C0.190579 12.4767 1.59711 13.9292 3.94032 15.3977C6.75211 17.16 10.0711 18.3845 13.4737 18.3845C16.8767 18.3845 20.1957 17.1597 23.007 15.3977C25.3502 13.9292 26.7568 12.4768 26.8155 12.4156C26.9913 12.2326 26.9913 11.958 26.8155 11.775C26.7567 11.7139 25.3502 10.2615 23.007 8.79289C20.1952 7.0307 16.8763 5.80615 13.4737 5.80615C10.0706 5.80615 6.75163 7.031 3.94037 8.79293C1.59711 10.2615 0.190579 11.7139 0.131842 11.775ZM7.68421 12.0953C7.68421 9.1476 10.2962 6.77372 13.4737 6.77372C16.656 6.77372 19.2632 9.15224 19.2632 12.0953C19.2632 15.0431 16.6512 17.417 13.4737 17.417C10.2914 17.417 7.68421 15.0384 7.68421 12.0953ZM22.3907 9.57773C23.9957 10.5809 25.1594 11.5952 25.6959 12.0955C25.1632 12.5928 24.0112 13.5973 22.4141 14.5983C21.3207 15.2835 19.8964 16.0388 18.2487 16.595C19.5231 15.4521 20.3158 13.8573 20.3158 12.0953C20.3158 10.3333 19.5231 8.73851 18.2486 7.59557C19.8866 8.14844 21.3027 8.89777 22.3907 9.57773ZM8.69869 7.59567C7.42432 8.73856 6.63158 10.3333 6.63158 12.0953C6.63158 13.8574 7.42432 15.4522 8.69879 16.5951C7.06074 16.0422 5.64458 15.2929 4.55669 14.6129C2.95179 13.6099 1.78811 12.5956 1.25153 12.0951C1.78421 11.5979 2.93621 10.5933 4.53332 9.59239C5.62674 8.90711 7.05106 8.15182 8.69869 7.59567Z" fill="black"/>
<path d="M8.99999 4.9732C9.25173 4.83962 9.33799 4.54372 9.19263 4.31231L7.61367 1.7984C7.46836 1.56694 7.14641 1.48769 6.89472 1.62132C6.64298 1.7549 6.55672 2.0508 6.70209 2.2822L8.28104 4.79612C8.42704 5.02869 8.74941 5.1062 8.99999 4.9732Z" fill="black"/>
<path d="M20.0526 1.62011C19.8009 1.48644 19.479 1.56576 19.3337 1.79725L17.7547 4.31208C17.6094 4.54357 17.6956 4.83958 17.9474 4.9732C18.198 5.10625 18.5204 5.02857 18.6663 4.79607L20.2452 2.28124C20.3906 2.04975 20.3043 1.75374 20.0526 1.62011Z" fill="black"/>
<path d="M14 3.3866V0.484009C14 0.216826 13.7644 0.000244141 13.4737 0.000244141C13.183 0.000244141 12.9474 0.216826 12.9474 0.484009V3.3866C12.9474 3.65378 13.183 3.87036 13.4737 3.87036C13.7644 3.87036 14 3.65378 14 3.3866Z" fill="black"/>
</svg>
