<svg width="19" height="19" viewBox="0 0 19 19" fill="none" xmlns="http://www.w3.org/2000/svg">
<path d="M9.5 15.8332H1.58334V14.2498H6.13542C5.84915 13.1561 5.27644 12.1585 4.47631 11.3597C3.67618 10.561 2.67756 9.99004 1.58334 9.70567C2.09 9.579 2.62042 9.49984 3.16667 9.49984C6.66584 9.49984 9.5 12.334 9.5 15.8332ZM17.4167 9.70567C16.91 9.579 16.3796 9.49984 15.8333 9.49984C13.5138 9.49984 11.495 10.7507 10.3867 12.6111C10.8438 13.6236 11.0787 14.7223 11.0754 15.8332H17.4088V14.2498H12.8567C13.1458 13.1562 13.7204 12.1591 14.5217 11.3606C15.3229 10.5621 16.3221 9.99099 17.4167 9.70567V9.70567ZM12.3817 8.724C12.9949 7.08359 14.1333 5.69194 15.6196 4.76567C12.2233 4.8765 9.5 7.65525 9.5 11.0832V11.099C10.2521 10.0936 11.2417 9.27817 12.3817 8.724ZM9.04084 7.00609C8.71301 6.14495 8.21237 5.36005 7.56973 4.69971C6.9271 4.03938 6.15608 3.5176 5.30417 3.1665C6.44417 4.639 7.125 6.47567 7.125 8.47859C7.125 8.64484 7.10125 8.80317 7.09334 8.9615C7.43375 9.1515 7.75042 9.37317 8.05917 9.61067C8.22853 8.69091 8.56099 7.80883 9.04084 7.00609V7.00609Z" fill="black"/>
</svg>
