<svg width="34" height="34" viewBox="0 0 34 34" fill="none" xmlns="http://www.w3.org/2000/svg">
<path d="M17 0C7.79998 0 0.333313 7.46667 0.333313 16.6667C0.333313 25.8667 7.79998 33.3333 17 33.3333C26.2 33.3333 33.6666 25.8667 33.6666 16.6667C33.6666 7.46667 26.2 0 17 0ZM8.78331 27.1333C9.49998 25.6333 13.8666 24.1667 17 24.1667C20.1333 24.1667 24.5166 25.6333 25.2166 27.1333C22.95 28.9333 20.1 30 17 30C13.9 30 11.05 28.9333 8.78331 27.1333ZM27.6 24.7167C25.2166 21.8167 19.4333 20.8333 17 20.8333C14.5666 20.8333 8.78331 21.8167 6.39998 24.7167C4.6294 22.4064 3.66883 19.5774 3.66665 16.6667C3.66665 9.31667 9.64998 3.33333 17 3.33333C24.35 3.33333 30.3333 9.31667 30.3333 16.6667C30.3333 19.7 29.3 22.4833 27.6 24.7167ZM17 6.66667C13.7666 6.66667 11.1666 9.26667 11.1666 12.5C11.1666 15.7333 13.7666 18.3333 17 18.3333C20.2333 18.3333 22.8333 15.7333 22.8333 12.5C22.8333 9.26667 20.2333 6.66667 17 6.66667ZM17 15C15.6166 15 14.5 13.8833 14.5 12.5C14.5 11.1167 15.6166 10 17 10C18.3833 10 19.5 11.1167 19.5 12.5C19.5 13.8833 18.3833 15 17 15Z" fill="white"/>
</svg>
