<svg width="20" height="20" viewBox="0 0 20 20" fill="none" xmlns="http://www.w3.org/2000/svg">
<path d="M14.7444 10C14.7421 9.25298 14.6621 8.50823 14.5056 7.77778H16.5056C16.4026 7.47309 16.2782 7.17606 16.1333 6.88889H14.2722C13.9224 5.72004 13.3797 4.61783 12.6667 3.62778C12.2111 3.43623 11.7361 3.29466 11.25 3.20556C12.2269 4.25514 12.9642 5.50427 13.4111 6.86667H10.4167V3.11111H9.58334V6.87223H6.58889C7.03671 5.50736 7.77602 4.25622 8.75556 3.20556C8.27154 3.29317 7.79842 3.43287 7.34445 3.62223C6.62859 4.60813 6.0822 5.70653 5.72778 6.87223H3.85556C3.7081 7.16463 3.58185 7.46727 3.47778 7.77778H5.49445C5.33794 8.50823 5.25788 9.25298 5.25556 10C5.2571 10.8171 5.35027 11.6315 5.53334 12.4278H3.56667C3.68161 12.7392 3.819 13.0418 3.97778 13.3333H5.77223C6.11234 14.3977 6.61657 15.4024 7.26667 16.3111C7.73221 16.5108 8.21854 16.658 8.71667 16.75C7.80996 15.761 7.11265 14.5988 6.66667 13.3333H9.58889V16.8556H10.4222V13.3333H13.3333C12.8858 14.5993 12.1866 15.7616 11.2778 16.75C11.7782 16.6548 12.2665 16.5039 12.7333 16.3C13.3824 15.3947 13.8866 14.3938 14.2278 13.3333H16.0056C16.1636 13.0472 16.301 12.7502 16.4167 12.4444H14.4444C14.6362 11.6435 14.7369 10.8235 14.7444 10V10ZM9.58334 12.4278H6.39445C6.00332 10.8988 5.98617 9.29812 6.34445 7.76111H9.58334V12.4278ZM13.6056 12.4278H10.4167V7.77778H13.6556C13.8152 8.50763 13.8934 9.25292 13.8889 10C13.8934 10.8178 13.7983 11.633 13.6056 12.4278V12.4278Z" fill="#1D2222"/>
<path d="M9.99998 1.11111C8.24192 1.11111 6.52335 1.63244 5.06157 2.60916C3.5998 3.58589 2.46049 4.97414 1.78771 6.59837C1.11494 8.22261 0.938906 10.0099 1.28189 11.7341C1.62487 13.4584 2.47145 15.0423 3.71458 16.2854C4.95772 17.5285 6.54157 18.3751 8.26584 18.7181C9.99012 19.0611 11.7774 18.885 13.4016 18.2123C15.0258 17.5395 16.4141 16.4002 17.3908 14.9384C18.3675 13.4766 18.8889 11.7581 18.8889 10C18.8889 7.64252 17.9524 5.3816 16.2854 3.71461C14.6184 2.04762 12.3575 1.11111 9.99998 1.11111V1.11111ZM9.99998 17.7778C8.46168 17.7778 6.95792 17.3216 5.67888 16.467C4.39983 15.6124 3.40293 14.3976 2.81425 12.9764C2.22557 11.5552 2.07154 9.99138 2.37165 8.48263C2.67175 6.97389 3.41252 5.58803 4.50026 4.50028C5.588 3.41254 6.97387 2.67178 8.48261 2.37167C9.99135 2.07157 11.5552 2.22559 12.9764 2.81427C14.3976 3.40296 15.6123 4.39985 16.467 5.6789C17.3216 6.95795 17.7778 8.4617 17.7778 10C17.7778 12.0628 16.9583 14.0411 15.4997 15.4997C14.0411 16.9583 12.0628 17.7778 9.99998 17.7778Z" fill="#1D2222"/>
</svg>
