<svg width="20" height="21" viewBox="0 0 20 21" fill="none" xmlns="http://www.w3.org/2000/svg">
<path d="M15.4821 11.493C15.3845 11.392 15.2685 11.3119 15.1409 11.2572C15.0132 11.2025 14.8763 11.1744 14.7381 11.1744C14.5999 11.1744 14.4631 11.2025 14.3354 11.2572C14.2077 11.3119 14.0918 11.392 13.9941 11.493L12.3167 13.2254C11.539 12.9863 10.0879 12.4429 9.16814 11.493C8.2484 10.5432 7.72224 9.04442 7.49072 8.24125L9.16814 6.50884C9.26595 6.408 9.34355 6.28823 9.39649 6.15638C9.44943 6.02453 9.47669 5.88319 9.47669 5.74046C9.47669 5.59772 9.44943 5.45638 9.39649 5.32453C9.34355 5.19269 9.26595 5.07291 9.16814 4.97207L4.95881 0.624751C4.86117 0.523735 4.7452 0.443594 4.61754 0.388915C4.48987 0.334236 4.35302 0.306091 4.21482 0.306091C4.07661 0.306091 3.93976 0.334236 3.8121 0.388915C3.68443 0.443594 3.56846 0.523735 3.47082 0.624751L0.616894 3.57223C0.217008 3.98523 -0.00819078 4.55255 0.000227877 5.13183C0.0244315 6.67948 0.421161 12.0549 4.52315 16.2914C8.62514 20.5279 13.83 20.9365 15.3295 20.9626H15.359C15.9146 20.9626 16.4398 20.7365 16.8375 20.3257L19.6915 17.3782C19.7893 17.2774 19.8669 17.1576 19.9198 17.0258C19.9727 16.8939 20 16.7526 20 16.6098C20 16.4671 19.9727 16.3258 19.9198 16.1939C19.8669 16.0621 19.7893 15.9423 19.6915 15.8414L15.4821 11.493ZM15.3485 18.7878C14.0352 18.765 9.54172 18.4009 6.01115 14.7535C2.469 11.0953 2.12594 6.4382 2.10489 5.10901L4.21482 2.92992L6.93615 5.74046L5.57548 7.14573C5.45179 7.27337 5.36085 7.43084 5.31087 7.6039C5.2609 7.77696 5.25347 7.96015 5.28925 8.13691C5.3145 8.2619 5.93222 11.2257 7.67909 13.0298C9.42596 14.834 12.2957 15.4719 12.4167 15.498C12.5877 15.536 12.7653 15.5289 12.933 15.4775C13.1007 15.426 13.2532 15.3318 13.3764 15.2035L14.7381 13.7982L17.4595 16.6087L15.3485 18.7878V18.7878Z" fill="#1D2222"/>
</svg>
