<svg width="20" height="18" viewBox="0 0 20 18" fill="none" xmlns="http://www.w3.org/2000/svg">
<path d="M9.99998 17.9476C9.71525 17.9476 9.44075 17.8444 9.22682 17.6571C8.41887 16.9506 7.63991 16.2867 6.95265 15.7011L6.94914 15.698C4.93423 13.9809 3.19427 12.4981 1.98364 11.0374C0.630339 9.40437 0 7.85606 0 6.16463C0 4.52126 0.563506 3.00515 1.58661 1.89538C2.62191 0.77249 4.0425 0.154053 5.58715 0.154053C6.74163 0.154053 7.79891 0.519042 8.72954 1.2388C9.1992 1.60211 9.62492 2.04675 9.99998 2.56539C10.3752 2.04675 10.8008 1.60211 11.2706 1.2388C12.2012 0.519042 13.2585 0.154053 14.413 0.154053C15.9575 0.154053 17.3782 0.77249 18.4135 1.89538C19.4366 3.00515 20 4.52126 20 6.16463C20 7.85606 19.3698 9.40437 18.0165 11.0372C16.8058 12.4981 15.066 13.9808 13.0514 15.6977C12.363 16.2842 11.5828 16.9492 10.773 17.6574C10.5592 17.8444 10.2846 17.9476 9.99998 17.9476ZM5.58715 1.32562C4.37362 1.32562 3.25881 1.80993 2.44781 2.68945C1.62475 3.58224 1.17141 4.81637 1.17141 6.16463C1.17141 7.58721 1.70013 8.85948 2.88558 10.2898C4.03136 11.6724 5.73562 13.1248 7.70888 14.8064L7.71254 14.8095C8.40239 15.3974 9.1844 16.0639 9.9983 16.7756C10.8171 16.0625 11.6003 15.395 12.2915 14.8061C14.2647 13.1245 15.9688 11.6724 17.1145 10.2898C18.2998 8.85948 18.8285 7.58721 18.8285 6.16463C18.8285 4.81637 18.3752 3.58224 17.5522 2.68945C16.7413 1.80993 15.6263 1.32562 14.413 1.32562C13.524 1.32562 12.7078 1.60821 11.9871 2.16546C11.3449 2.66229 10.8975 3.29034 10.6352 3.72979C10.5003 3.95577 10.2629 4.09066 9.99998 4.09066C9.73707 4.09066 9.49965 3.95577 9.36476 3.72979C9.10261 3.29034 8.65523 2.66229 8.01283 2.16546C7.29216 1.60821 6.47597 1.32562 5.58715 1.32562Z" fill="#201E1E"/>
</svg>
